PathFileType	4	(X/Y/Z)	s10c0302.trc
DataRate	CameraRate	NumFrames	NumMarkers	Units	OrigDataRate	OrigDataStartFrame	OrigNumFrames
200	200	6	50	mm	200	1250	2000
Frame#	Time	racr			lacr			c7			jug			rlel			rdr			llel			ldr			s2			lic			ric			lasi			rasi			rpsi			lpsi			rgt			lgt			rth1			rth2			rth3			rth4			rlfc			rmfc			rsh1			rsh2			rsh3			rsh4			rlmal			rmmal			rcal			rtoe			rmt5			lth1			lth2			lth4			lth3			llfc			lmfc			llmal			lmmal			lcal			lmt5			lsh1			lsh2			lsh3			lsh4			ltoe			SBIKE			LBIKE			RBIKE			
		X1	Y1	Z1	X2	Y2	Z2	X3	Y3	Z3	X4	Y4	Z4	X5	Y5	Z5	X6	Y6	Z6	X7	Y7	Z7	X8	Y8	Z8	X9	Y9	Z9	X10	Y10	Z10	X11	Y11	Z11	X12	Y12	Z12	X13	Y13	Z13	X14	Y14	Z14	X15	Y15	Z15	X16	Y16	Z16	X17	Y17	Z17	X18	Y18	Z18	X19	Y19	Z19	X20	Y20	Z20	X21	Y21	Z21	X22	Y22	Z22	X23	Y23	Z23	X24	Y24	Z24	X25	Y25	Z25	X26	Y26	Z26	X27	Y27	Z27	X28	Y28	Z28	X29	Y29	Z29	X30	Y30	Z30	X31	Y31	Z31	X32	Y32	Z32	X33	Y33	Z33	X34	Y34	Z34	X35	Y35	Z35	X36	Y36	Z36	X37	Y37	Z37	X38	Y38	Z38	X39	Y39	Z39	X40	Y40	Z40	X41	Y41	Z41	X42	Y42	Z42	X43	Y43	Z43	X44	Y44	Z44	X45	Y45	Z45	X46	Y46	Z46	X47	Y47	Z47	X48	Y48	Z48	X49	Y49	Z49	X50	Y50	Z50	
1250	6.2500	679.311195	1312.211065	-74.520065	686.901193	1263.944124	-391.002140	679.318424	1328.414314	-236.309698	634.268131	1189.367748	-218.489009	597.287367	1073.154335	32.331986	644.072953	874.270475	-55.486583	544.289984	1051.665789	-532.959885	639.042042	887.916515	-419.897228	147.596862	1174.752105	-184.710990	281.710356	1161.505358	-355.603223	340.273137	1166.141874	-67.158717	296.278335	1081.016103	-331.503597	338.779657	1076.003451	-86.277935	207.247337	1221.359301	-143.522245	191.349962	1231.579453	-253.551637	249.803770	1063.216016	-15.666026	152.550252	1049.922268	-376.559594	313.309706	921.008620	-6.972487	362.462299	852.117098	-35.780026	373.110419	768.313321	-43.550457	391.575719	868.906546	-50.350257	400.267770	664.835831	-66.691308	376.581274	672.313594	-183.099930	296.181204	614.870362	-29.397418	233.542995	552.933040	-42.655046	150.765581	528.273471	-40.550336	247.372020	533.430012	-73.082415	52.077106	475.383655	-51.614339	76.771912	466.402575	-131.425564	17.629875	515.807721	-99.361568	75.197218	277.299547	-104.602326	26.998301	346.536919	-41.750830	218.964582	930.261662	-403.965518	289.206428	879.376198	-405.595326	317.644183	901.530799	-400.542176	323.813619	797.126107	-403.511587	400.963474	696.312557	-395.897371	417.264602	688.350514	-283.570220	216.265177	365.578417	-384.350519	234.488329	372.234222	-304.167808	157.453498	334.663001	-339.418372	323.868852	274.687089	-405.856678	328.618206	596.557901	-420.604766	317.000568	510.226343	-403.534725	261.772378	440.887349	-399.708291	343.087578	503.502310	-376.467007	408.052628	302.261346	-349.727352	-217.334387	832.264055	-214.602808	-103.890387	80.484288	-418.303579	-103.876158	80.612685	-18.350233	
1251	6.2550	678.846338	1313.207819	-72.694281	686.361908	1263.634079	-389.678038	679.104746	1328.726530	-234.888840	632.893552	1190.114062	-216.459680	597.243249	1073.355684	34.385771	644.057662	874.345394	-55.439917	543.706510	1052.202905	-531.034477	639.502928	888.311902	-420.651023	147.439941	1173.939820	-187.586061	283.861808	1159.439946	-356.955533	338.467342	1166.109715	-67.929796	298.007165	1078.795261	-333.243560	338.004778	1075.665391	-87.763561	206.271709	1220.496355	-146.737455	192.084559	1229.973450	-256.658082	250.491473	1062.861866	-18.388854	153.361801	1047.599887	-377.802249	314.759109	922.330937	-8.408693	364.885873	854.172563	-36.444897	377.091249	770.390912	-43.847504	394.298844	871.270358	-50.921464	406.280394	668.107884	-67.514983	380.538400	676.303573	-184.857045	301.997016	619.812158	-29.767305	238.143164	559.060807	-42.988328	155.154028	535.985463	-40.168005	251.578137	539.506256	-73.475118	54.864380	485.824458	-51.329336	79.291984	476.651729	-131.111916	20.633894	526.202038	-99.201414	78.229450	287.982155	-104.642772	29.843241	357.096573	-41.649518	218.394686	926.591513	-403.960169	286.547988	872.781005	-404.174518	315.971327	894.673580	-400.799908	318.415454	789.655078	-401.896167	391.912680	686.271941	-392.775708	408.788952	677.601742	-280.381184	212.367812	354.246556	-383.486856	230.079307	361.273717	-303.826713	153.700771	322.640017	-338.646595	320.557835	264.114776	-405.569831	319.551923	587.699370	-418.571662	309.858165	501.277082	-402.887920	256.040973	430.537526	-398.322561	336.517869	494.557682	-375.944595	404.601761	292.258381	-349.625281	-217.276689	832.279038	-214.650262	-103.884287	80.463035	-418.279270	-103.858024	80.603185	-18.348269	
1252	6.2600	678.376020	1314.332799	-70.739295	685.921148	1263.281686	-388.350563	678.812543	1329.115413	-233.541346	631.862736	1190.814802	-214.443454	597.271717	1073.540438	36.403661	643.996253	874.392937	-55.403340	543.111246	1052.441600	-529.020946	639.503696	888.291738	-420.620399	146.962113	1172.715348	-189.844093	285.903240	1156.991998	-358.146907	336.523540	1166.009003	-68.723026	299.963223	1076.486410	-335.095714	337.306145	1075.196163	-88.891555	205.178396	1219.154951	-149.972673	192.746722	1228.062419	-259.228848	251.187265	1062.881092	-20.331006	154.238982	1044.766655	-378.889531	316.310851	923.810869	-9.498504	367.536500	856.266676	-36.540086	380.503959	772.413423	-44.114638	396.761884	873.551382	-51.406256	412.291922	671.157205	-68.248910	384.750727	680.064296	-185.994299	308.014539	624.602800	-30.033563	243.383989	565.385712	-42.738561	159.233427	543.669272	-40.063721	256.507284	545.333624	-72.879218	58.132629	496.039539	-51.133570	82.292378	487.455312	-131.698248	23.952008	536.509512	-99.057161	81.970394	298.476860	-104.713428	33.416370	367.507510	-41.549848	217.935757	922.638354	-404.460958	284.055099	866.185059	-403.513988	314.238463	887.034063	-400.080442	312.959783	781.994007	-400.085674	383.020246	677.088493	-389.789022	396.885753	667.190932	-278.339085	207.836028	343.239727	-382.721182	225.116976	350.791220	-303.623644	149.526888	311.239704	-338.047355	316.638150	253.693424	-405.375289	310.652314	578.784137	-416.632623	302.517171	492.862010	-401.823223	249.857972	420.740931	-396.859351	329.774843	486.075219	-375.608417	400.685545	282.219104	-349.418246	-217.254866	832.270429	-214.632368	-103.877116	80.446572	-418.278830	-103.863950	80.579088	-18.335230	
1253	6.2650	677.923357	1315.502933	-68.712768	685.495860	1262.983842	-387.066220	678.500133	1329.457153	-232.239136	630.966236	1191.434983	-212.387457	597.661714	1073.602232	38.297290	643.894813	874.552705	-55.466726	542.554607	1052.629187	-526.957635	639.490463	888.135329	-420.537357	146.806885	1170.937603	-192.079927	288.032884	1154.640355	-359.604885	334.560359	1165.791041	-69.573272	302.065223	1073.914539	-336.859390	336.399476	1074.762714	-90.129209	205.337143	1217.621638	-151.138027	193.450342	1226.015944	-262.009362	251.319568	1062.080254	-22.347482	155.504422	1041.539234	-380.248475	317.592519	924.956851	-10.615361	369.946402	858.219777	-36.830417	383.698175	774.366005	-44.376685	399.029512	875.791800	-51.877599	418.281948	674.065373	-68.806596	386.299685	685.281929	-187.414068	313.480474	629.762973	-30.122528	246.757125	571.502663	-43.414918	163.239768	551.308829	-39.979034	259.235159	551.059088	-74.255712	61.843040	506.094912	-51.063059	85.853664	497.090410	-131.067525	28.049515	546.978472	-98.803771	86.339146	308.854660	-104.876149	37.579694	378.094660	-41.731406	217.572708	918.232547	-404.531528	281.665674	859.403816	-402.776393	312.516137	879.392773	-399.362135	307.562524	774.176040	-398.154480	374.363967	668.646826	-386.720306	386.165283	658.320738	-275.025375	202.703697	332.887415	-382.179547	219.644640	340.798357	-303.549457	144.922460	300.464959	-337.762904	312.260061	243.563813	-405.159210	301.383398	570.240485	-414.241484	294.796012	483.784921	-400.117256	243.451707	411.233384	-395.400722	322.571843	477.228411	-374.488179	396.280976	272.141782	-349.188884	-217.241976	832.228408	-214.546723	-103.874670	80.434108	-418.273161	-103.884388	80.522948	-18.359649	
1254	6.2700	677.501903	1316.702390	-66.565035	685.045077	1262.711606	-385.751905	678.096247	1329.644829	-231.166256	630.358564	1191.804806	-210.366284	597.769806	1073.758386	40.115525	643.831774	874.662351	-55.514953	542.068006	1052.816801	-524.847978	639.394643	888.026256	-420.575964	147.106800	1167.652735	-194.253746	290.168028	1152.131250	-360.909479	332.595870	1165.547287	-70.434327	304.257237	1071.192521	-338.585557	335.181813	1074.185727	-91.625625	203.857884	1214.516875	-155.143699	194.126132	1223.649101	-264.769219	251.695783	1061.831601	-23.892436	156.694552	1037.942055	-381.458892	318.513995	926.077282	-11.687563	372.339945	859.915969	-36.954512	387.172960	776.235102	-44.522233	401.157382	878.069474	-52.265641	424.281151	676.895985	-69.471399	394.229825	688.394482	-189.166623	318.227880	635.038062	-30.215814	250.892007	577.693690	-43.437886	167.247285	558.921678	-39.923752	263.236268	557.271821	-74.134738	66.083671	516.047794	-50.817614	89.815399	506.819694	-130.839757	31.874129	556.688958	-98.622472	91.348555	319.088028	-104.979951	42.278142	387.648838	-41.436397	217.118843	913.306787	-404.656802	279.245657	852.372145	-402.171194	310.738328	871.348483	-398.619897	302.329408	766.568779	-396.124706	365.719383	661.171612	-383.663965	374.593476	650.371836	-271.325703	197.210443	323.190966	-382.002705	213.705682	331.306877	-303.594981	139.894635	290.546162	-337.849306	307.340912	233.586730	-404.952347	292.000083	562.108928	-412.194333	286.928900	475.353311	-398.391729	236.818779	402.035811	-394.119252	315.210717	469.192158	-373.629826	391.388359	262.431726	-349.038963	-217.244018	832.224193	-214.529111	-103.895598	80.428799	-418.263639	-103.904101	80.523841	-18.350282	
1255	6.2750	677.160642	1317.935400	-64.309013	684.621475	1262.456591	-384.435151	677.570325	1329.972393	-230.736214	630.223579	1192.114290	-208.997485	597.967864	1073.877952	41.793196	643.826745	874.814872	-55.516693	541.543164	1052.755868	-522.666934	639.247040	887.930333	-420.436558	147.474648	1165.389036	-197.015122	292.389630	1149.522788	-362.475228	330.473045	1165.203254	-71.502283	306.457508	1068.544513	-340.451860	333.612379	1073.319125	-93.330169	203.871873	1212.744825	-157.392763	195.033726	1220.605870	-267.414641	251.766570	1061.280181	-25.447219	158.385813	1033.775764	-382.939332	319.267570	926.716841	-12.752489	374.705599	861.551319	-36.981559	391.374021	778.175007	-44.420498	403.201965	880.272529	-52.607984	430.371582	679.706789	-69.957853	395.259667	688.774776	-187.512192	323.609423	640.188814	-30.254872	255.301489	583.942404	-43.439117	171.442770	566.493584	-39.997342	268.595591	562.771952	-73.453172	70.803297	525.414221	-50.656592	94.319671	516.246585	-130.656983	36.354873	566.076223	-98.321893	96.991986	328.888911	-105.165341	47.628384	397.147321	-41.405383	216.518505	907.992190	-405.116221	276.825885	845.397062	-402.147879	308.839710	863.434779	-398.339463	297.160470	758.886051	-393.952711	357.054429	654.522592	-380.600429	362.876402	643.632114	-267.547096	191.539110	313.840746	-381.899161	207.343403	322.328436	-303.751161	134.499745	281.435758	-338.044587	301.959319	224.027927	-404.733925	282.371093	554.328946	-410.011051	278.873966	467.513748	-397.154905	230.068580	393.313896	-393.183175	307.456799	461.596214	-372.761432	386.105143	252.520698	-348.662669	-217.266639	832.218624	-214.571263	-103.907664	80.437197	-418.263998	-103.905175	80.521520	-18.343473	
